HIERARCHY
ROOT Hips
{
    OFFSET 0.000000 0.000000 0.000000
    CHANNELS 6 Xposition Yposition Zposition Zrotation Xrotation Yrotation
    JOINT Spine
    {
        OFFSET -0.000000 8.249566 0.000000
        CHANNELS 3 Zrotation Xrotation Yrotation
        JOINT Spine1
        {
            OFFSET -0.000000 22.751984 0.000000
            CHANNELS 3 Zrotation Xrotation Yrotation
            JOINT Neck
            {
                OFFSET -0.000000 22.658548 2.059868
                CHANNELS 3 Zrotation Xrotation Yrotation
                JOINT Head
                {
                    OFFSET -0.000000 14.084625 -2.012089
                    CHANNELS 3 Zrotation Xrotation Yrotation
                    End Site
                    {
                        OFFSET -0.000000 25.151115 0.000000
                    }
                }
            }
            JOINT LeftShoulder
            {
                OFFSET 4.014710 20.418900 0.142539
                CHANNELS 3 Zrotation Xrotation Yrotation
                JOINT LeftArm
                {
                    OFFSET 12.409162 0.000000 0.000000
                    CHANNELS 3 Zrotation Xrotation Yrotation
                    JOINT LeftForeArm
                    {
                        OFFSET 32.111938 0.000000 0.000000
                        CHANNELS 3 Zrotation Xrotation Yrotation
                        JOINT LeftHand
                        {
                            OFFSET 25.320286 0.000000 0.000000
                            CHANNELS 3 Zrotation Xrotation Yrotation
                            End Site
                            {
                                OFFSET 15.090670 0.000000 0.000000
                            }
                        }
                    }
                }
            }
            JOINT RightShoulder
            {
                OFFSET -4.019371 20.418900 0.142539
                CHANNELS 3 Zrotation Xrotation Yrotation
                JOINT RightArm
                {
                    OFFSET -12.409162 0.000000 0.000000
                    CHANNELS 3 Zrotation Xrotation Yrotation
                    JOINT RightForeArm
                    {
                        OFFSET -32.111938 0.000000 0.000000
                        CHANNELS 3 Zrotation Xrotation Yrotation
                        JOINT RightHand
                        {
                            OFFSET -25.320286 0.000000 0.000000
                            CHANNELS 3 Zrotation Xrotation Yrotation
                            End Site
                            {
                                OFFSET -15.090670 0.000000 0.000000
                            }
                        }
                    }
                }
            }
        }
    }
    JOINT LeftUpLeg
    {
        OFFSET 10.060447 0.000000 0.000000
        CHANNELS 3 Zrotation Xrotation Yrotation
        JOINT LeftLeg
        {
            OFFSET -0.000000 -49.683781 0.000000
            CHANNELS 3 Zrotation Xrotation Yrotation
            JOINT LeftFoot
            {
                OFFSET -0.000000 -37.035061 0.000000
                CHANNELS 3 Zrotation Xrotation Yrotation
                JOINT LeftToeBase
                {
                    OFFSET -0.000000 -6.539289 15.090670
                    CHANNELS 3 Zrotation Xrotation Yrotation
                    End Site
                    {
                        OFFSET -0.000000 0.000000 4.024179
                    }
                }
            }
        }
    }
    JOINT RightUpLeg
    {
        OFFSET -10.060447 0.000000 0.000000
        CHANNELS 3 Zrotation Xrotation Yrotation
        JOINT RightLeg
        {
            OFFSET -0.000000 -49.683781 0.000000
            CHANNELS 3 Zrotation Xrotation Yrotation
            JOINT RightFoot
            {
                OFFSET -0.000000 -37.035061 0.000000
                CHANNELS 3 Zrotation Xrotation Yrotation
                JOINT RightToeBase
                {
                    OFFSET -0.000000 -6.539289 15.090670
                    CHANNELS 3 Zrotation Xrotation Yrotation
                    End Site
                    {
                        OFFSET -0.000000 0.000000 4.024179
                    }
                }
            }
        }
    }
}
MOTION
Frames:    4
Frame Time:    0.008333
-27.084034    96.444298    94.671524    -4.576876    -1.846575    89.777977    2.142221    7.363185    -2.987241    3.887094    -7.692750    -2.587997    9.323298    -4.978034    26.389042    -26.661829    -16.089626    18.410271    30.576111    -13.576598    -12.410563    -30.135298    -8.002067    -24.372509    -3.818605    -41.466801    -20.272013    21.799931    -40.985607    6.860780    -8.982004    1.824808    -1.928798    34.629807    31.246588    23.145540    -13.081321    -13.542266    27.963909    17.462318    -12.188580    -12.217180    7.798547    -22.924360    8.353233    -3.292656    33.908360    7.898092    0.306705    -6.749259    13.731497    0.000000    0.000000    0.000000    -4.809987    -12.393142    3.089192    0.772406    25.075438    13.771475    0.052983    -10.989640    -5.410090    0.000000    0.000000    0.000000    
-26.654556    96.398773    94.135056    -4.111053    -1.568262    89.361031    2.135915    7.446932    -3.063739    4.166464    -7.862431    -2.638314    9.398186    -4.683969    26.502048    -26.910101    -16.384665    18.402935    31.176893    -13.890889    -11.916876    -28.848551    -8.059568    -23.320587    -3.224863    -41.541206    -20.923397    22.484028    -41.033192    6.391428    -9.021973    1.747228    -2.044717    34.400948    30.471624    22.380924    -13.777417    -14.063375    29.310247    17.104519    -12.246391    -11.631905    7.286228    -22.157072    8.452291    -3.359066    34.044357    8.136805    0.411225    -7.192865    13.792613    0.000000    0.000000    0.000000    -5.317968    -11.885695    3.546964    0.796933    25.379364    13.883573    0.172607    -11.249497    -5.588927    0.000000    0.000000    0.000000    
-26.228725    96.345200    93.568726    -3.657208    -1.204725    88.962494    2.103221    7.483214    -3.128710    4.385772    -7.955323    -2.686081    9.264670    -4.495395    26.621552    -26.841341    -16.673649    18.524822    31.770599    -14.202962    -11.408548    -27.542709    -9.080356    -22.572353    -3.228220    -41.164837    -20.823580    22.456379    -40.902630    4.737355    -8.959131    1.780504    -2.247347    33.941071    29.684769    21.944754    -14.448085    -14.710430    30.522779    15.947114    -12.408662    -11.360944    6.667479    -21.462576    8.672377    -3.367817    34.250145    8.495920    0.489888    -7.521242    13.658851    0.000000    0.000000    0.000000    -5.986963    -11.441680    3.902900    0.920389    25.733789    14.100546    0.252533    -11.493778    -5.770160    0.000000    0.000000    0.000000    
-25.790283    96.295395    92.991920    -3.177869    -0.848235    88.580269    2.128787    7.608697    -3.217098    4.478724    -8.222783    -2.753468    9.632808    -4.502276    27.073219    -26.968742    -16.088245    19.033636    32.737209    -14.429635    -10.865036    -26.747168    -8.819374    -21.481243    -2.376598    -41.215881    -21.647167    22.843060    -40.914978    4.223817    -8.834326    1.828589    -2.309156    33.539837    28.898735    21.328869    -15.058632    -15.618801    31.825357    15.766226    -12.916691    -11.026835    6.034122    -20.722811    8.746196    -3.484709    34.418022    8.753055    0.620630    -7.885927    13.799330    0.000000    0.000000    0.000000    -6.568187    -11.086044    3.801838    0.489221    26.484360    15.365876    0.440793    -11.904087    -6.275402    0.000000    0.000000    0.000000    
